<?xml version="1.0" encoding="UTF-8" standalone="no"?>
<svg
   xmlns:dc="http://purl.org/dc/elements/1.1/"
   xmlns:cc="http://creativecommons.org/ns#"
   xmlns:rdf="http://www.w3.org/1999/02/22-rdf-syntax-ns#"
   xmlns:svg="http://www.w3.org/2000/svg"
   xmlns="http://www.w3.org/2000/svg"
   id="svg8"
   version="1.1"
   viewBox="0 0 377.03125 171.97917"
   height="171.97917mm"
   width="377.03125mm">
  <defs
     id="defs2" />
  <metadata
     id="metadata5">
    <rdf:RDF>
      <cc:Work
         rdf:about="">
        <dc:format>image/svg+xml</dc:format>
        <dc:type
           rdf:resource="http://purl.org/dc/dcmitype/StillImage" />
        <dc:title></dc:title>
      </cc:Work>
    </rdf:RDF>
  </metadata>
  <g
     transform="translate(82.682289,-46.212795)"
     id="layer1">
    <path
       id="path880"
       d="m 70.379169,215.49384 c -5.044307,-3.84938 -12.032347,-8.12137 -17.642602,-10.78543 -7.544083,-3.58235 -19.595541,-7.55779 -30.117467,-9.93491 -2.216981,-0.50086 -4.089038,-0.96882 -4.160132,-1.03991 -0.07109,-0.0711 0.211403,-1.17766 0.627764,-2.45904 l 0.757021,-2.32979 1.299247,-0.18258 c 2.125607,-0.2987 10.151089,-0.97302 17.221586,-1.447 6.993602,-0.46882 31.050148,-0.66285 33.010695,-0.26626 l 0.996111,0.2015 -0.202361,2.96384 c -0.1113,1.63011 -0.193062,6.17852 -0.181692,10.10759 0.01886,6.5225 0.315515,10.8492 1.083876,15.80885 0.214135,1.38221 -0.163182,1.29295 -2.692046,-0.63686 z M -37.438539,194.01133 c 0,-1.65249 6.39036,-12.91355 12.109011,-21.33844 6.403462,-9.43377 10.722859,-14.6708 18.5626768,-22.5062 11.640611,-11.63405 24.6859662,-21.46338 43.6762292,-32.9089 8.168677,-4.9233 14.610291,-7.8439 29.236458,-13.25568 6.716792,-2.48525 25.240292,-8.867075 26.202602,-9.027475 0.71118,-0.11853 1.01259,0.0739 2.64584,1.68908 6.519672,6.447615 13.710832,9.382565 23.009892,9.391125 7.19917,0.007 12.1763,-2.03243 17.22053,-7.054985 3.00546,-2.99255 4.41982,-6.31404 3.93268,-9.23553 -0.44332,-2.65865 -2.99582,-9.05209 -3.81641,-9.55924 -0.14915,-0.0922 -0.27118,-0.29422 -0.27118,-0.44898 0,-0.29042 4.22425,-0.22404 21.16667,0.33262 14.59597,0.47957 38.44348,2.34581 40.67969,3.18348 1.07545,0.40285 0.65915,0.99173 -1.45521,2.05847 -1.12779,0.56899 -2.82443,1.47532 -3.77031,2.01406 -1.44616,0.82367 -2.04298,1.00213 -3.75095,1.12157 -1.52826,0.10687 -2.29928,0.0348 -3.1142,-0.29132 -0.9422,-0.37699 -2.50753,-0.43335 -12.03628,-0.43335 -6.02426,0 -11.14154,0.0723 -11.37172,0.1606 -0.64435,0.24726 -0.49726,0.8441 0.30909,1.25418 0.40018,0.20352 2.98979,0.98626 5.75468,1.73943 6.76689,1.84331 8.18862,2.31762 10.0796,3.36271 0.8871,0.49028 1.78719,0.89141 2.00018,0.89141 0.213,0 1.03499,-0.55451 1.82666,-1.23226 2.33067,-1.99528 3.28701,-2.30437 6.58385,-2.12792 2.76397,0.14793 12.46238,1.81288 31.10346,5.3396 16.68468,3.156585 17.87052,3.307875 25.92917,3.307975 6.31915,8e-5 7.95853,-0.22755 15.11258,-2.098335 4.56948,-1.19493 7.8196,-1.05072 9.28216,0.41185 0.62267,0.62266 0.64,0.736138 0.46125,3.020945 l -0.18571,2.37398 0.62944,0.009 c 0.8971,0.0134 1.49156,0.39846 4.06982,2.63646 2.66311,2.31164 7.18132,7.26611 7.91525,8.67952 0.28001,0.5392 0.51737,1.5516 0.52917,2.25711 0.0185,1.10031 -0.0871,1.37276 -0.7543,1.94695 -0.68969,0.59357 -0.93917,0.65112 -2.24896,0.51886 -0.81026,-0.0818 -6.53812,-0.35451 -12.72858,-0.60597 l -11.25534,-0.45722 -1.26614,1.35361 c -2.03407,2.17456 -8.56208,7.86997 -11.14814,9.72624 -2.94524,2.11409 -6.08248,3.68058 -8.56377,4.27609 -2.83633,0.68072 -2.89668,0.3139 -0.36176,-2.19858 1.56564,-1.55178 2.3469,-2.58563 3.07213,-4.06536 1.6715,-3.41045 2.17783,-6.4246 1.39035,-8.27673 -0.52599,-1.23719 -2.45117,-3.30459 -3.64384,-3.91304 -1.35167,-0.68957 -4.04439,-1.02117 -8.37385,-1.03123 -6.72983,-0.0156 -12.27071,0.9556 -19.76485,3.46451 -8.49283,2.84326 -12.5744,4.71178 -17.70012,8.10305 -3.20889,2.12306 -7.23633,6.02501 -8.12425,7.87114 -0.93671,1.94753 -0.88155,4.49728 0.14155,6.54327 1.00733,2.01448 2.76567,3.80293 4.53544,4.61316 4.20063,1.92311 18.10531,2.33473 25.85593,0.76541 6.17768,-1.25084 10.54997,-2.91094 13.3087,-5.05315 0.83587,-0.64908 1.67757,-1.18014 1.87042,-1.18014 0.6636,0 0.34761,1.24401 -0.97671,3.84514 -1.54088,3.02646 -2.72412,4.63444 -4.21963,5.73425 -1.2012,0.88338 -1.42671,1.91987 -0.58367,2.68281 0.26617,0.24089 3.26089,1.14664 6.65491,2.01279 3.39402,0.86615 6.2869,1.69077 6.42863,1.8325 0.54044,0.54044 -5.05415,5.72029 -11.1502,10.32363 -4.64897,3.51058 -12.19065,8.33435 -16.17419,10.34524 -1.7253,0.87093 -3.54327,1.27116 -3.81045,0.83887 -0.17089,-0.27651 0.14806,-0.56019 3.14756,-2.79944 2.58244,-1.92789 7.38114,-6.76481 8.29144,-8.35746 0.9911,-1.73404 1.09325,-3.01907 0.27484,-3.45708 -0.98104,-0.52504 -9.78611,0.56914 -16.37149,2.03443 -7.34877,1.63515 -16.01649,5.16049 -21.03437,8.55511 -1.02085,0.69061 -1.71979,0.69852 -1.71979,0.0195 0,-0.28655 0.28539,-1.39528 0.63421,-2.46385 0.99334,-3.04301 1.30549,-5.59922 1.14525,-9.37844 -0.32359,-7.63178 -2.98238,-12.31336 -9.98155,-17.57544 -3.90852,-2.93848 -4.58467,-3.2309 -7.09677,-3.06922 -1.64505,0.10588 -2.4271,0.32174 -4.11238,1.13508 l -2.08102,1.00434 -7.31168,0.23297 c -10.60078,0.33778 -14.85709,-0.17117 -20.68229,-2.47307 -3.90517,-1.54318 -7.67251,-5.15606 -9.61909,-9.22471 -0.75511,-1.57829 -0.82185,-1.93748 -0.81114,-4.36562 0.0135,-3.06635 0.64831,-5.69036 2.1621,-8.93731 0.69653,-1.49401 0.87995,-2.13773 0.66915,-2.34852 -0.42695,-0.42696 -5.34063,-0.32025 -8.56459,0.186 -8.17469,1.28363 -23.271742,4.97036 -31.319992,7.64839 -9.796674,3.25982 -14.940174,5.74121 -22.780389,10.98998 -10.140788,6.78893 -15.337057,10.9751 -22.483331,18.11278 -8.168656,8.15884 -13.539343,15.17523 -17.562097,22.94354 -2.017983,3.89691 -2.886835,5.97547 -4.779158,11.43316 -0.700207,2.01948 -1.4606222,3.8593 -1.6898122,4.08849 -0.37923,0.37923 -0.887045,0.33971 -5.64534,-0.43936 -2.875743,-0.47084 -6.359719,-0.96914 -7.742167,-1.10734 -3.338195,-0.3337 -9.6058028,-0.32647 -13.0026958,0.015 -5.547733,0.55769 -14.150271,2.26744 -18.004766,3.57844 -2.171076,0.73843 -2.594621,0.78523 -2.594621,0.28665 z M 22.7574,181.76629 c 1.372042,-3.10649 6.676834,-12.38487 7.33057,-12.82157 0.128685,-0.086 2.281692,-0.41892 4.78446,-0.73991 9.619078,-1.23366 12.738682,-1.40417 28.151238,-1.53866 l 14.869496,-0.12974 -0.742397,1.94376 c -1.35791,3.5553 -2.667193,7.74502 -3.296544,10.54897 l -0.622152,2.77187 -3.013951,-0.0151 c -1.657673,-0.008 -8.252701,-0.11505 -14.655617,-0.23726 -8.375597,-0.15987 -13.014899,-0.13325 -16.536459,0.0949 -4.91889,0.31862 -14.460741,1.21785 -16.083999,1.51577 l -0.870458,0.15976 z m -67.651704,-0.95746 c -2.08497,-4.21667 -7.162115,-9.83544 -11.48233,-12.70725 -5.640888,-3.74971 -14.639871,-7.17785 -22.45229,-8.55313 -1.318986,-0.23219 -2.666047,-0.47207 -2.993469,-0.53307 -0.327422,-0.061 -0.595313,-0.21357 -0.595313,-0.33904 0,-0.34901 1.812544,-0.73259 6.881332,-1.45626 9.105782,-1.30002 17.148955,-1.95251 27.911377,-2.26427 7.157593,-0.20733 21.681474,0.0197 22.005777,0.34404 0.07102,0.071 -0.985372,1.4194 -2.347551,2.9964 -5.611137,6.49603 -12.082184,16.03157 -15.187797,22.38028 -0.409313,0.83675 -0.813663,1.52136 -0.898554,1.52136 -0.08489,0 -0.463423,-0.62508 -0.841182,-1.38906 z m 79.990452,-18.91771 c 1.738038,-2.08781 6.275015,-7.10603 8.736696,-9.66341 l 2.998409,-3.11497 8.466666,-0.28559 c 8.040865,-0.27122 28.497739,-0.14073 31.540579,0.20119 l 1.37808,0.15486 -1.97353,2.81516 c -1.08543,1.54833 -2.83666,4.22356 -3.89161,5.94496 l -1.9181,3.1298 -1.60215,-0.15533 c -2.784485,-0.26997 -24.386568,-0.18807 -29.354102,0.11129 -2.619375,0.15785 -6.846094,0.52049 -9.392708,0.80587 -5.752524,0.64463 -5.47551,0.64151 -4.98823,0.0562 z m 228.608982,-9.76915 c -1.95995,-0.46406 -7.01032,-2.98364 -10.76346,-5.36977 -6.91624,-4.39712 -9.08476,-5.30015 -12.72786,-5.30015 -1.78522,0 -2.2211,-0.0769 -2.2211,-0.39183 0,-0.21551 0.32742,-0.46113 0.72761,-0.54582 0.40018,-0.0847 1.50151,-0.40842 2.44739,-0.7194 1.34387,-0.44183 2.56355,-0.58885 5.57988,-0.67261 4.60142,-0.12777 6.25443,0.14536 16.40123,2.71003 8.31657,2.10208 11.20473,2.46993 16.0188,2.04024 1.87407,-0.16727 4.24082,-0.48025 5.25947,-0.6955 4.30437,-0.90955 7.54062,-2.60518 7.54062,-3.9509 0,-0.83682 0.62815,-1.59853 1.15237,-1.39737 0.58941,0.22618 0.59401,2.806 0.007,3.96703 -1.25579,2.48403 -4.93985,6.02744 -7.7353,7.43995 -5.00724,2.53008 -16.64769,4.07921 -21.68671,2.8861 z m -283.539167,-6.42471 c -4.925542,-6.02048 -11.990276,-11.22899 -19.011143,-14.01606 -4.643171,-1.8432 -13.842223,-4.25784 -21.739169,-5.70628 -3.364065,-0.61702 -4.427754,-0.95833 -4.077681,-1.3084 0.588233,-0.58824 27.916239,-3.25974 42.172449,-4.12265 8.860494,-0.53632 27.5678028,-0.28333 36.115625,0.4884 l 1.984375,0.17916 -6.2177082,4.14077 c -9.791533,6.52082 -15.253819,10.84245 -23.6684528,18.72593 -2.030828,1.90264 -3.77349,3.45934 -3.872584,3.45934 -0.0991,0 -0.857666,-0.8281 -1.685711,-1.84021 z m 107.278835,-1.21811 c -2.42741,-0.5292 -31.284811,-0.95047 -33.436752,-0.48812 -0.530508,0.11398 -0.704754,0.0729 -0.57581,-0.13572 0.525434,-0.85017 9.177923,-6.11112 14.253417,-8.66646 l 2.428933,-1.22289 8.069792,0.16878 c 7.30197,0.15272 19.30968,0.76028 22.154312,1.12096 l 1.11994,0.142 -4.691812,4.60412 -4.69181,4.60411 -2.11667,-0.0201 c -1.16417,-0.0111 -2.29526,-0.0591 -2.51354,-0.10666 z m 16.801042,-14.67322 c -2.18282,-0.1073 -8.353332,-0.28641 -13.712252,-0.39802 -5.5142,-0.11486 -9.59123,-0.30034 -9.39271,-0.42731 0.19294,-0.12339 2.43439,-1.05227 4.981,-2.06417 5.29844,-2.10535 10.29505,-3.61519 18.785412,-5.67646 8.37383,-2.03298 7.58261,-1.94082 7.74763,-0.90241 0.11275,0.70953 0.017,0.96678 -0.50939,1.36792 -0.35654,0.27172 -1.06686,1.3253 -1.5785,2.34128 -0.85041,1.68869 -0.92505,2.021 -0.86963,3.87158 l 0.0606,2.02434 -0.77172,0.0292 c -0.42444,0.016 -2.55765,-0.0586 -4.74046,-0.16591 z M 24.547338,114.45199 c -0.271695,-1.03897 -1.910718,-4.2282 -3.017785,-5.87205 -1.548352,-2.29909 -4.97578,-5.76067 -7.283278,-7.35584 -4.4878942,-3.102485 -10.8079882,-5.516745 -15.5691892,-5.947405 -2.188384,-0.19794 -3.266731,-0.54433 -2.872676,-0.92277 0.811247,-0.77909 28.8655812,-1.84776 48.3810092,-1.84296 13.407779,0.003 34.295115,0.57896 33.938705,0.93537 -0.04856,0.0486 -2.049163,0.68333 -4.445788,1.4106 -15.530915,4.712978 -24.981623,8.512285 -42.560785,17.109985 -3.403786,1.66474 -6.242667,3.0268 -6.308625,3.0268 -0.06596,0 -0.183671,-0.24378 -0.261588,-0.54173 z m 90.085942,-14.02973 c -2.36136,-0.26614 -4.02985,-0.832467 -7.17944,-2.436905 -9.731002,-4.95709 -13.918872,-11.9141 -13.922562,-23.12861 -0.001,-3.458535 0.52745,-8.221777 1.19683,-10.784807 1.20619,-4.618466 5.649072,-10.090282 11.229932,-13.830687 3.91858,-2.626313 8.47425,-4.50323 8.47425,-3.491356 0,0.155794 -0.46337,0.840403 -1.02972,1.521354 -1.36946,1.646582 -2.52996,3.793328 -3.10081,5.73601 -0.6196,2.10863 -0.61055,7.370397 0.0178,10.31875 0.89355,4.193051 3.18051,8.256895 6.48671,11.526646 2.22057,2.1961 4.14065,3.2955 6.9317,3.96895 4.07728,0.9838 4.45761,1.10968 5.66354,1.87446 2.47434,1.56918 3.72025,6.36806 2.64058,10.17078 -0.7863,2.76948 -2.7149,5.08168 -5.35364,6.41853 -1.62729,0.82442 -5.39782,1.855855 -7.43392,2.033565 -0.97872,0.0854 -2.01761,0.18885 -2.30866,0.22983 -0.29104,0.041 -1.33169,-0.0159 -2.31256,-0.12651 z"
       style="fill:#9e1c43;fill-opacity:1;stroke:none;stroke-width:0.26458335" />
  </g>
</svg>
